# xmcd
#
# Track frame offsets: 
#        150
#        18750
#        37612
#        57942
#        76389
#        95972
#        114058
#        131169
#        149700
#        166011
#        183825
#        202416
#        219449
#        237281
#
# Disc length: 3401 seconds
#
# Revision: 0
# Processed by: cddbd v1.4PL0 Copyright (c) Steve Scherf et al.
# Submitted via: ExactAudioCopy v0.90a11
#
DISCID=bd0d470e
DTITLE=Belo-Valeu Esperar - Belo-Valeu Esperar-RaRo Products[DJ MP2]
DYEAR=1900
DGENRE=
TTITLE0=Amante Amor Amiga
TTITLE1=Abrigo
TTITLE2=Valeu Esperar
TTITLE3=Figurino
TTITLE4=Tarde Demais
TTITLE5=Vício
TTITLE6=Segredo de Amor
TTITLE7=Do Meu Jeito
TTITLE8=À Meia-luz
TTITLE9=Supera
TTITLE10=Todo Cuidado é Pouco
TTITLE11=Romance Rosa
TTITLE12=Fim da Tristeza
TTITLE13=Viver por Ela
EXTD=By DJ MP2
EXTT0=
EXTT1=
EXTT2=
EXTT3=
EXTT4=
EXTT5=
EXTT6=
EXTT7=
EXTT8=
EXTT9=
EXTT10=
EXTT11=
EXTT12=
EXTT13=
PLAYORDER=
